HIERARCHY
ROOT ui
{
	 OFFSET 0 0 0
	 CHANNELS 3 XPosition YPosition Z Position
	 EndSite
	 {
	 OFFSET 0 -1 0
	 }
}
ROOT li
{
	 OFFSET 0 0 0
	 CHANNELS 3 XPosition YPosition Z Position
	 EndSite
	 {
	 OFFSET 0 -1 0
	 }
}
ROOT ul
{
	 OFFSET 0 0 0
	 CHANNELS 3 XPosition YPosition Z Position
	 EndSite
	 {
	 OFFSET 0 -1 0
	 }
}
ROOT ll
{
	 OFFSET 0 0 0
	 CHANNELS 3 XPosition YPosition Z Position
	 EndSite
	 {
	 OFFSET 0 -1 0
	 }
}
ROOT tt
{
	 OFFSET 0 0 0
	 CHANNELS 3 XPosition YPosition Z Position
	 EndSite
	 {
	 OFFSET 0 -1 0
	 }
}
ROOT tb
{
	 OFFSET 0 0 0
	 CHANNELS 3 XPosition YPosition Z Position
	 EndSite
	 {
	 OFFSET 0 -1 0
	 }
}
ROOT td
{
	 OFFSET 0 0 0
	 CHANNELS 3 XPosition YPosition Z Position
	 EndSite
	 {
	 OFFSET 0 -1 0
	 }
}
ROOT v
{
	 OFFSET 0 0 0
	 CHANNELS 3 XPosition YPosition Z Position
	 EndSite
	 {
	 OFFSET 0 -1 0
	 }
}
ROOT bn
{
	 OFFSET 0 0 0
	 CHANNELS 3 XPosition YPosition Z Position
	 EndSite
	 {
	 OFFSET 0 -1 0
	 }
}
MOTION
Frames: 13
Frame Time: 0.002
0.03694504547119141	-0.0029698920249938963	0		0.45126168823242185	-2.36469970703125	0		-0.9410477294921875	0.2622735290527344	0		-0.6619080810546875	-2.688425048828125	0		1.7461871337890624	-0.19357786560058593	0		3.28176806640625	0.2175880126953125	0		4.55382080078125	0.14679440307617186	0		5.89309228515625	0.410995849609375	0		-0.22185723876953126	5.92677294921875	0		
-0.0368898811340332	0.0032812240123748777	0		0.464275146484375	-2.368801025390625	0		-0.936923095703125	0.2653121337890625	0		-0.6109304809570313	-2.695116455078125	0		1.7533890380859376	-0.1855878143310547	0		3.284923828125	0.22263992309570313	0		4.5587744140625	0.13881619262695313	0		5.89245068359375	0.4291071472167969	0		-0.2568340759277344	5.92341845703125	0		
0.0451202507019043	-0.003913754940032959	0		0.4585950622558594	-2.355628662109375	0		-0.9417317504882813	0.2704674987792969	0		-0.6525745849609375	-2.679386474609375	0		1.753502685546875	-0.1855054473876953	0		3.308831787109375	0.20935296630859376	0		4.55477880859375	0.1319659423828125	0		5.9005625	0.4290715026855469	0		-0.25574549865722657	5.922482421875	0		
-0.03663085556030273	0.0034163260459899904	0		0.4478444519042969	-2.349401123046875	0		-0.9466487426757813	0.2665977478027344	0		-0.6174694213867188	-2.682877197265625	0		1.7465255126953125	-0.19333322143554688	0		3.3179599609375	0.20828155517578126	0		4.55083154296875	0.12610208129882813	0		5.91358056640625	0.42094873046875	0		-0.0892073974609375	5.94795263671875	0		
0.04239409255981445	-0.006781891822814941	0		0.44600357055664064	-2.351337890625	0		-0.9464761352539063	0.2666202392578125	0		-0.6522264404296875	-2.679308837890625	0		1.7338115234375	-0.18609170532226563	0		3.2951513671875	0.20968963623046874	0		4.5510048828125	0.1261609649658203	0		5.90917236328125	0.44809109497070315	0		-0.08905683135986328	5.94898046875	0		
-0.031336244583129884	-0.0016332000494003295	0		0.4550832824707031	-2.36047314453125	0		-0.9462800903320312	0.2666107177734375	0		-0.6520027465820313	-2.679315673828125	0		1.7438397216796875	-0.19723008728027344	0		3.300238525390625	0.20264306640625	0		4.56093701171875	0.10904972076416015	0		5.91736572265625	0.4480216064453125	0		-0.2212709503173828	5.9270322265625	0		
0.04093424224853515	0.0012164249420166015	0		0.43448544311523435	-2.35017529296875	0		-0.9360828247070313	0.2654126281738281	0		-0.646662109375	-2.67343359375	0		1.759150390625	-0.1914754180908203	0		3.32751220703125	0.2062297821044922	0		4.55426220703125	0.11617840576171876	0		5.92682470703125	0.4639165954589844	0		-0.20498484802246095	5.935748046875	0		
-0.023782829284667968	0.005159653186798095	0		0.463741455078125	-2.35068408203125	0		-0.9358577270507813	0.2653353576660156	0		-0.6423368530273438	-2.669569580078125	0		1.7544752197265625	-0.18544044494628906	0		3.314677490234375	0.20241062927246095	0		4.57337841796875	0.10887947845458984	0		5.93506201171875	0.4648053283691406	0		-0.2550453491210937	5.92245751953125	0		
-0.030657907485961915	-0.0018311079740524292	0		0.45310174560546873	-2.344607666015625	0		-0.9464725952148437	0.2753915710449219	0		-0.6210377807617188	-2.66800390625	0		1.7445257568359376	-0.19735884094238282	0		3.3058154296875	0.19649819946289063	0		4.5575029296875	0.10209352111816407	0		5.93842724609375	0.473742431640625	0		-0.08848304748535156	5.94777880859375	0		
-0.03534817886352539	0.0031084940433502195	0		0.4782879943847656	-2.3501240234375	0		-0.9453844604492188	0.2662263488769531	0		-0.6546848754882812	-2.662624267578125	0		1.7447603759765624	-0.19746958923339844	0		3.32493359375	0.18911744689941407	0		4.5577333984375	0.10202467346191406	0		5.9345283203125	0.46575701904296873	0		-0.22166453552246093	5.9277021484375	0		
-0.030193822860717773	-0.0021451070308685302	0		0.42463946533203123	-2.344458740234375	0		-0.9451561279296875	0.2660357666015625	0		-0.6106342163085937	-2.6774892578125	0		1.74499560546875	-0.19761967468261718	0		3.306273681640625	0.19628411865234374	0		4.556716796875	0.08593431854248047	0		5.938876953125	0.4736072082519531	0		-0.22152145385742186	5.9275224609375	0		
0.04702278518676758	-0.004553619861602783	0		0.4627715759277344	-2.354257080078125	0		-0.9398576049804688	0.26972552490234375	0		-0.6761912841796875	-2.6666982421875	0		1.7621759033203126	-0.20207478332519532	0		3.321309326171875	0.18288394165039062	0		4.57584619140625	0.07848999786376953	0		5.94810986328125	0.47333685302734374	0		-0.22038294982910156	5.92628515625	0		
0.049468040466308594	0.0071514368057250975	0		0.42928506469726563	-2.33999072265625	0		-0.9396011962890625	0.26944900512695313	0		-0.6148236694335938	-2.662913330078125	0		1.753470947265625	-0.2001746063232422	0		3.316366943359375	0.16974610900878906	0		4.5651064453125	0.07846088409423828	0		5.955640625	0.49104708862304686	0		-0.22020614624023438	5.92601904296875	0		
